<mxfile host="app.diagrams.net" modified="2023-11-02T16:21:23.505Z" agent="Mozilla/5.0 (X11; Ubuntu; Linux x86_64; rv:109.0) Gecko/20100101 Firefox/118.0" etag="v0yLVxM9efuLYPxxljyD" version="22.0.8" type="device">
  <diagram name="Page-1" id="yuT0qAIs1FgsdcAZJhVF">
    <mxGraphModel dx="84" dy="2412" grid="1" gridSize="10" guides="1" tooltips="1" connect="1" arrows="1" fold="1" page="1" pageScale="1" pageWidth="850" pageHeight="1100" math="0" shadow="0">
      <root>
        <mxCell id="0" />
        <mxCell id="1" parent="0" />
        <mxCell id="5nEvEeknpsT2eOyR6tz_-13" style="edgeStyle=orthogonalEdgeStyle;rounded=0;orthogonalLoop=1;jettySize=auto;html=1;" edge="1" parent="1" source="5nEvEeknpsT2eOyR6tz_-14">
          <mxGeometry relative="1" as="geometry">
            <mxPoint x="989.5" y="-60.00000000000017" as="targetPoint" />
          </mxGeometry>
        </mxCell>
        <mxCell id="5nEvEeknpsT2eOyR6tz_-14" value="&lt;div&gt;updated with Parent&#39;s beacon&amp;nbsp;&lt;/div&gt;&lt;div&gt;If no parent detected, increase the GPS time by Epoch time until the parent is removed&lt;br&gt;&lt;/div&gt;" style="text;html=1;align=center;verticalAlign=middle;resizable=0;points=[];autosize=1;strokeColor=none;fillColor=none;" vertex="1" parent="1">
          <mxGeometry x="922.5" y="10" width="480" height="40" as="geometry" />
        </mxCell>
        <mxCell id="5nEvEeknpsT2eOyR6tz_-15" style="edgeStyle=orthogonalEdgeStyle;rounded=0;orthogonalLoop=1;jettySize=auto;html=1;exitX=1;exitY=0.5;exitDx=0;exitDy=0;" edge="1" parent="1" source="5nEvEeknpsT2eOyR6tz_-16">
          <mxGeometry relative="1" as="geometry">
            <mxPoint x="1259.5" y="-99.78333333333347" as="targetPoint" />
          </mxGeometry>
        </mxCell>
        <mxCell id="5nEvEeknpsT2eOyR6tz_-16" value="Future Event times calcualted in GPS time" style="whiteSpace=wrap;html=1;aspect=fixed;" vertex="1" parent="1">
          <mxGeometry x="1099.5" y="-140" width="80" height="80" as="geometry" />
        </mxCell>
        <mxCell id="5nEvEeknpsT2eOyR6tz_-17" style="edgeStyle=orthogonalEdgeStyle;rounded=0;orthogonalLoop=1;jettySize=auto;html=1;exitX=1;exitY=0.5;exitDx=0;exitDy=0;entryX=0;entryY=0.5;entryDx=0;entryDy=0;" edge="1" parent="1" source="5nEvEeknpsT2eOyR6tz_-19" target="5nEvEeknpsT2eOyR6tz_-16">
          <mxGeometry relative="1" as="geometry" />
        </mxCell>
        <mxCell id="5nEvEeknpsT2eOyR6tz_-18" style="edgeStyle=orthogonalEdgeStyle;rounded=0;orthogonalLoop=1;jettySize=auto;html=1;exitX=0.5;exitY=0;exitDx=0;exitDy=0;entryX=0.5;entryY=1;entryDx=0;entryDy=0;" edge="1" parent="1" source="5nEvEeknpsT2eOyR6tz_-19" target="5nEvEeknpsT2eOyR6tz_-20">
          <mxGeometry relative="1" as="geometry" />
        </mxCell>
        <mxCell id="5nEvEeknpsT2eOyR6tz_-19" value="GPS time" style="whiteSpace=wrap;html=1;aspect=fixed;" vertex="1" parent="1">
          <mxGeometry x="949.5" y="-140" width="80" height="80" as="geometry" />
        </mxCell>
        <mxCell id="5nEvEeknpsT2eOyR6tz_-20" value="HW Time" style="whiteSpace=wrap;html=1;aspect=fixed;" vertex="1" parent="1">
          <mxGeometry x="952" y="-285.95" width="75" height="75" as="geometry" />
        </mxCell>
        <mxCell id="5nEvEeknpsT2eOyR6tz_-21" value="Synchronize" style="text;html=1;align=center;verticalAlign=middle;resizable=0;points=[];autosize=1;strokeColor=none;fillColor=none;" vertex="1" parent="1">
          <mxGeometry x="904.5" y="-189.45" width="90" height="30" as="geometry" />
        </mxCell>
        <mxCell id="5nEvEeknpsT2eOyR6tz_-22" style="edgeStyle=orthogonalEdgeStyle;rounded=0;orthogonalLoop=1;jettySize=auto;html=1;" edge="1" parent="1" source="5nEvEeknpsT2eOyR6tz_-23">
          <mxGeometry relative="1" as="geometry">
            <mxPoint x="1299.5" y="-197.45" as="targetPoint" />
          </mxGeometry>
        </mxCell>
        <mxCell id="5nEvEeknpsT2eOyR6tz_-23" value="Push the events" style="whiteSpace=wrap;html=1;aspect=fixed;" vertex="1" parent="1">
          <mxGeometry x="1259.5" y="-140" width="80" height="80" as="geometry" />
        </mxCell>
        <mxCell id="5nEvEeknpsT2eOyR6tz_-24" style="edgeStyle=orthogonalEdgeStyle;rounded=0;orthogonalLoop=1;jettySize=auto;html=1;exitX=1;exitY=0.5;exitDx=0;exitDy=0;entryX=0;entryY=0.5;entryDx=0;entryDy=0;" edge="1" parent="1" source="5nEvEeknpsT2eOyR6tz_-25" target="5nEvEeknpsT2eOyR6tz_-27">
          <mxGeometry relative="1" as="geometry" />
        </mxCell>
        <mxCell id="5nEvEeknpsT2eOyR6tz_-25" value="HW Event timestamp = HW time + (Event time - GPS time)" style="whiteSpace=wrap;html=1;aspect=fixed;" vertex="1" parent="1">
          <mxGeometry x="1249" y="-300" width="101" height="101" as="geometry" />
        </mxCell>
        <mxCell id="5nEvEeknpsT2eOyR6tz_-26" style="edgeStyle=orthogonalEdgeStyle;rounded=0;orthogonalLoop=1;jettySize=auto;html=1;entryX=0.5;entryY=0;entryDx=0;entryDy=0;" edge="1" parent="1" source="5nEvEeknpsT2eOyR6tz_-27" target="5nEvEeknpsT2eOyR6tz_-29">
          <mxGeometry relative="1" as="geometry" />
        </mxCell>
        <mxCell id="5nEvEeknpsT2eOyR6tz_-27" value="RADIO (mocrocontroller)" style="rounded=1;whiteSpace=wrap;html=1;" vertex="1" parent="1">
          <mxGeometry x="1424.5" y="-279.49999999999994" width="120" height="60" as="geometry" />
        </mxCell>
        <mxCell id="5nEvEeknpsT2eOyR6tz_-28" style="edgeStyle=orthogonalEdgeStyle;rounded=0;orthogonalLoop=1;jettySize=auto;html=1;exitX=1;exitY=0.5;exitDx=0;exitDy=0;entryX=0;entryY=0.5;entryDx=0;entryDy=0;" edge="1" parent="1" source="5nEvEeknpsT2eOyR6tz_-29" target="5nEvEeknpsT2eOyR6tz_-31">
          <mxGeometry relative="1" as="geometry" />
        </mxCell>
        <mxCell id="5nEvEeknpsT2eOyR6tz_-29" value="Event expired message by the microcontroller" style="whiteSpace=wrap;html=1;aspect=fixed;" vertex="1" parent="1">
          <mxGeometry x="1435" y="-148.75" width="97.5" height="97.5" as="geometry" />
        </mxCell>
        <mxCell id="5nEvEeknpsT2eOyR6tz_-30" style="edgeStyle=orthogonalEdgeStyle;rounded=0;orthogonalLoop=1;jettySize=auto;html=1;entryX=0;entryY=0.5;entryDx=0;entryDy=0;" edge="1" parent="1" source="5nEvEeknpsT2eOyR6tz_-31" target="5nEvEeknpsT2eOyR6tz_-19">
          <mxGeometry relative="1" as="geometry">
            <Array as="points">
              <mxPoint x="1633.5" y="60" />
              <mxPoint x="902.5" y="60" />
              <mxPoint x="902.5" y="-100" />
            </Array>
          </mxGeometry>
        </mxCell>
        <mxCell id="5nEvEeknpsT2eOyR6tz_-31" value="Execute the event" style="whiteSpace=wrap;html=1;aspect=fixed;" vertex="1" parent="1">
          <mxGeometry x="1588.75" y="-144.37" width="88.75" height="88.75" as="geometry" />
        </mxCell>
      </root>
    </mxGraphModel>
  </diagram>
</mxfile>
